# xmcd CD database file
#
# Track frame offsets:
#	150
#	23970
#	51557
#	69892
#	87046
#	97459
#	111334
#	133255
#	152010
#	168366
#	188046
#	205595
#	221924
#	240076
#	269320
#	293044
#	314923
#	331650
#
# Disc length: 4681 seconds
#
# Revision: 0
# Processed by: cddbd v1.5.2PL0 Copyright (c) Steve Scherf et al.
# Submitted via: CDex 1.51
#
DISCID=0b124712
DTITLE=Ronnie Ross - Stompin´with the Ronnie Ross Quintet and The Swingin´ Sounds of the Jazz Makers
DYEAR=1958
DGENRE=Jazz
TTITLE0=Stompin´
TTITLE1=Lucky Bean
TTITLE2=Blue Grass
TTITLE3=Red Prune
TTITLE4=Blues For Terrasita
TTITLE5=Donation
TTITLE6=Smoke Gets In Your Eyes
TTITLE7=Ts And As
TTITLE8=The Serpent
TTITLE9=Slindin´´ 
TTITLE10=The Country Squire
TTITLE11=Pitful Pearl
TTITLE12=The Moonbather
TTITLE13=The Real Funky Blues
TTITLE14=It´s A Big Wide Wonderful World
TTITLE15=Blues For The Five Of Us
TTITLE16=I Won´t Fret If You Don´t Get The Blues Anymore
TTITLE17=How Long Has This Beeb Going On?
EXTD=YEAR: 1958
EXTT0=
EXTT1=
EXTT2=
EXTT3=
EXTT4=
EXTT5=
EXTT6=
EXTT7=
EXTT8=
EXTT9=
EXTT10=
EXTT11=
EXTT12=
EXTT13=
EXTT14=
EXTT15=
EXTT16=
EXTT17=
PLAYORDER=
